<svg width="24" height="21" viewBox="0 0 24 21" fill="none" xmlns="http://www.w3.org/2000/svg">
<path fill-rule="evenodd" clip-rule="evenodd" d="M12.8126 0.668614C12.2953 0.438587 11.7047 0.438587 11.1874 0.668614C10.7878 0.846266 10.5283 1.15918 10.3477 1.41416C10.1701 1.66485 9.98004 1.99327 9.77096 2.35447L1.50381 16.6341C1.2939 16.9966 1.10315 17.326 0.973806 17.6056C0.842356 17.8897 0.699752 18.2717 0.745201 18.7076C0.804012 19.2717 1.09955 19.7843 1.55827 20.1178C1.91276 20.3756 2.31476 20.4435 2.62652 20.4721C2.93327 20.5003 3.31392 20.5003 3.73281 20.5002H20.2671C20.686 20.5003 21.0667 20.5003 21.3734 20.4721C21.6852 20.4435 22.0872 20.3756 22.4417 20.1178C22.9004 19.7843 23.1959 19.2717 23.2547 18.7076C23.3002 18.2717 23.1576 17.8897 23.0261 17.6056C22.8968 17.3261 22.7061 16.9967 22.4962 16.6342L14.229 2.35443C14.0199 1.99326 13.8298 1.66484 13.6522 1.41416C13.4716 1.15918 13.2121 0.846266 12.8126 0.668614ZM13 8.00024C13 7.44796 12.5523 7.00024 12 7.00024C11.4477 7.00024 11 7.44796 11 8.00024V12.0002C11 12.5525 11.4477 13.0002 12 13.0002C12.5523 13.0002 13 12.5525 13 12.0002V8.00024ZM12 15.0002C11.4477 15.0002 11 15.448 11 16.0002C11 16.5525 11.4477 17.0002 12 17.0002H12.01C12.5623 17.0002 13.01 16.5525 13.01 16.0002C13.01 15.448 12.5623 15.0002 12.01 15.0002H12Z" fill="#DD7805"/>
</svg>
