<svg width="32" height="32" viewBox="0 0 32 32" fill="none" xmlns="http://www.w3.org/2000/svg">
<mask id="mask0_1016_18447" style="mask-type:alpha" maskUnits="userSpaceOnUse" x="3" y="1" width="26" height="30">
<path d="M16.3814 1.45124C16.1285 1.41469 15.8716 1.41469 15.6187 1.45124C15.3272 1.49336 15.0559 1.59584 14.8405 1.6772L14.7828 1.69895L7.45957 4.44498C6.63585 4.75252 5.91246 5.02259 5.35536 5.51355C4.86801 5.94305 4.4926 6.48477 4.26157 7.0919C3.99748 7.78591 3.9986 8.55807 3.99987 9.43733L4.00005 15.9998C4.00005 19.7687 6.04977 22.9108 8.26546 25.219C10.496 27.5428 13.048 29.1841 14.3975 29.9713L14.4521 30.0033C14.6984 30.148 15.0181 30.3357 15.4409 30.4263C15.7868 30.5005 16.2133 30.5005 16.5592 30.4263C16.982 30.3357 17.3017 30.148 17.5479 30.0034L17.6026 29.9713C18.9521 29.1841 21.5041 27.5428 23.7346 25.219C25.9503 22.9108 28 19.7687 28 15.9998L28.0002 9.43733C28.0015 8.55807 28.0026 7.78591 27.7385 7.0919C27.5075 6.48477 27.1321 5.94305 26.6447 5.51355C26.0876 5.02259 25.3642 4.75252 24.5405 4.44498L17.2173 1.69895L17.1596 1.6772C16.9442 1.59584 16.6729 1.49336 16.3814 1.45124Z" fill="black"/>
</mask>
<g mask="url(#mask0_1016_18447)">
<rect width="32" height="32" fill="#88D5C0"/>
</g>
<path d="M16.3145 15.6318H13.7578L13.7441 14.2236H15.8906C16.2689 14.2236 16.5788 14.1758 16.8203 14.0801C17.0618 13.9798 17.2419 13.8363 17.3604 13.6494C17.4834 13.458 17.5449 13.2256 17.5449 12.9521C17.5449 12.6423 17.4857 12.3916 17.3672 12.2002C17.2533 12.0088 17.0732 11.8698 16.8271 11.7832C16.5856 11.6966 16.2734 11.6533 15.8906 11.6533H14.4688V20H12.418V10.0469H15.8906C16.4694 10.0469 16.9867 10.1016 17.4424 10.2109C17.9027 10.3203 18.2923 10.4867 18.6113 10.71C18.9303 10.9333 19.1742 11.2158 19.3428 11.5576C19.5114 11.8949 19.5957 12.2959 19.5957 12.7607C19.5957 13.1709 19.5023 13.5492 19.3154 13.8955C19.1331 14.2419 18.8438 14.5244 18.4473 14.7432C18.0553 14.9619 17.5426 15.0827 16.9092 15.1055L16.3145 15.6318ZM16.2256 20H13.1973L13.9971 18.4004H16.2256C16.5856 18.4004 16.8796 18.3434 17.1074 18.2295C17.3353 18.111 17.5039 17.9515 17.6133 17.751C17.7227 17.5505 17.7773 17.3203 17.7773 17.0605C17.7773 16.7689 17.7272 16.516 17.627 16.3018C17.5312 16.0876 17.3763 15.9235 17.1621 15.8096C16.9479 15.6911 16.6654 15.6318 16.3145 15.6318H14.3389L14.3525 14.2236H16.8135L17.2852 14.7773C17.8913 14.7682 18.3789 14.8753 18.748 15.0986C19.1217 15.3174 19.3929 15.6022 19.5615 15.9531C19.7347 16.304 19.8213 16.68 19.8213 17.0811C19.8213 17.7191 19.6823 18.2568 19.4043 18.6943C19.1263 19.1273 18.7184 19.4531 18.1807 19.6719C17.6475 19.8906 16.9958 20 16.2256 20Z" fill="black"/>
</svg>
