<svg width="32" height="32" viewBox="0 0 32 32" fill="none" xmlns="http://www.w3.org/2000/svg">
<mask id="mask0_1016_18450" style="mask-type:alpha" maskUnits="userSpaceOnUse" x="3" y="1" width="26" height="30">
<path d="M16.3814 1.45124C16.1285 1.41469 15.8716 1.41469 15.6187 1.45124C15.3272 1.49336 15.0559 1.59584 14.8405 1.6772L14.7828 1.69895L7.45957 4.44498C6.63585 4.75252 5.91246 5.02259 5.35536 5.51355C4.86801 5.94305 4.4926 6.48477 4.26157 7.0919C3.99748 7.78591 3.9986 8.55807 3.99987 9.43733L4.00005 15.9998C4.00005 19.7687 6.04977 22.9108 8.26546 25.219C10.496 27.5428 13.048 29.1841 14.3975 29.9713L14.4521 30.0033C14.6984 30.148 15.0181 30.3357 15.4409 30.4263C15.7868 30.5005 16.2133 30.5005 16.5592 30.4263C16.982 30.3357 17.3017 30.148 17.5479 30.0034L17.6026 29.9713C18.9521 29.1841 21.5041 27.5428 23.7346 25.219C25.9503 22.9108 28 19.7687 28 15.9998L28.0002 9.43733C28.0015 8.55807 28.0026 7.78591 27.7385 7.0919C27.5075 6.48477 27.1321 5.94305 26.6447 5.51355C26.0876 5.02259 25.3642 4.75252 24.5405 4.44498L17.2173 1.69895L17.1596 1.6772C16.9442 1.59584 16.6729 1.49336 16.3814 1.45124Z" fill="black"/>
</mask>
<g mask="url(#mask0_1016_18450)">
<rect width="32" height="32" fill="#FBB552"/>
</g>
<path d="M18.0781 16.6982H20.1221C20.0811 17.3682 19.8965 17.9629 19.5684 18.4824C19.2448 19.002 18.7913 19.4076 18.208 19.6992C17.6292 19.9909 16.932 20.1367 16.1162 20.1367C15.4782 20.1367 14.9062 20.0273 14.4004 19.8086C13.8945 19.5853 13.4616 19.2663 13.1016 18.8516C12.7461 18.4368 12.4749 17.9355 12.2881 17.3477C12.1012 16.7598 12.0078 16.1012 12.0078 15.3721V14.6816C12.0078 13.9525 12.1035 13.2939 12.2949 12.7061C12.4909 12.1136 12.7689 11.61 13.1289 11.1953C13.4935 10.7806 13.9287 10.4616 14.4346 10.2383C14.9404 10.015 15.5055 9.90332 16.1299 9.90332C16.9593 9.90332 17.6589 10.0537 18.2285 10.3545C18.8027 10.6553 19.2471 11.07 19.5615 11.5986C19.8805 12.1273 20.0719 12.7288 20.1357 13.4033H18.085C18.0622 13.0023 17.9824 12.6628 17.8457 12.3848C17.709 12.1022 17.5016 11.8903 17.2236 11.749C16.9502 11.6032 16.5856 11.5303 16.1299 11.5303C15.7881 11.5303 15.4896 11.5941 15.2344 11.7217C14.9792 11.8493 14.765 12.043 14.5918 12.3027C14.4186 12.5625 14.2887 12.8906 14.2021 13.2871C14.1201 13.679 14.0791 14.1393 14.0791 14.668V15.3721C14.0791 15.887 14.1178 16.3405 14.1953 16.7324C14.2728 17.1198 14.3913 17.4479 14.5508 17.7168C14.7148 17.9811 14.9245 18.1816 15.1797 18.3184C15.4395 18.4505 15.7516 18.5166 16.1162 18.5166C16.5446 18.5166 16.8978 18.4482 17.1758 18.3115C17.4538 18.1748 17.6657 17.972 17.8115 17.7031C17.9619 17.4342 18.0508 17.0993 18.0781 16.6982Z" fill="black"/>
</svg>
