<svg width="32" height="32" viewBox="0 0 32 32" fill="none" xmlns="http://www.w3.org/2000/svg">
<mask id="mask0_1016_18453" style="mask-type:alpha" maskUnits="userSpaceOnUse" x="3" y="1" width="26" height="30">
<path d="M16.3814 1.45124C16.1285 1.41469 15.8716 1.41469 15.6187 1.45124C15.3272 1.49336 15.0559 1.59584 14.8405 1.6772L14.7828 1.69895L7.45957 4.44498C6.63585 4.75252 5.91246 5.02259 5.35536 5.51355C4.86801 5.94305 4.4926 6.48477 4.26157 7.0919C3.99748 7.78591 3.9986 8.55807 3.99987 9.43733L4.00005 15.9998C4.00005 19.7687 6.04977 22.9108 8.26546 25.219C10.496 27.5428 13.048 29.1841 14.3975 29.9713L14.4521 30.0033C14.6984 30.148 15.0181 30.3357 15.4409 30.4263C15.7868 30.5005 16.2133 30.5005 16.5592 30.4263C16.982 30.3357 17.3017 30.148 17.5479 30.0034L17.6026 29.9713C18.9521 29.1841 21.5041 27.5428 23.7346 25.219C25.9503 22.9108 28 19.7687 28 15.9998L28.0002 9.43733C28.0015 8.55807 28.0026 7.78591 27.7385 7.0919C27.5075 6.48477 27.1321 5.94305 26.6447 5.51355C26.0876 5.02259 25.3642 4.75252 24.5405 4.44498L17.2173 1.69895L17.1596 1.6772C16.9442 1.59584 16.6729 1.49336 16.3814 1.45124Z" fill="black"/>
</mask>
<g mask="url(#mask0_1016_18453)">
<rect width="32" height="32" fill="#DD7805"/>
</g>
<path d="M15.3916 20H13.2246L13.2383 18.4004H15.3916C15.9294 18.4004 16.3828 18.2796 16.752 18.0381C17.1211 17.792 17.3991 17.4342 17.5859 16.9648C17.7773 16.4954 17.873 15.9281 17.873 15.2627V14.7773C17.873 14.2669 17.8184 13.818 17.709 13.4307C17.6042 13.0433 17.4469 12.7174 17.2373 12.4531C17.0277 12.1888 16.7702 11.9906 16.4648 11.8584C16.1595 11.7217 15.8086 11.6533 15.4121 11.6533H13.1836V10.0469H15.4121C16.0775 10.0469 16.6859 10.1608 17.2373 10.3887C17.7933 10.612 18.2741 10.9333 18.6797 11.3525C19.0853 11.7718 19.3975 12.2731 19.6162 12.8564C19.8395 13.4352 19.9512 14.0801 19.9512 14.791V15.2627C19.9512 15.9691 19.8395 16.6139 19.6162 17.1973C19.3975 17.7806 19.0853 18.2819 18.6797 18.7012C18.2786 19.1159 17.7979 19.4372 17.2373 19.665C16.6813 19.8883 16.0661 20 15.3916 20ZM14.3867 10.0469V20H12.3359V10.0469H14.3867Z" fill="black"/>
</svg>
