<svg width="20" height="20" viewBox="0 0 20 20" fill="none" xmlns="http://www.w3.org/2000/svg">
<rect width="20" height="20" rx="3" fill="#8993A5"/>
<mask id="mask0_2957_3742" style="mask-type:alpha" maskUnits="userSpaceOnUse" x="2" y="2" width="16" height="16">
<path d="M8.05998 8.00001C8.21672 7.55446 8.52608 7.17875 8.93328 6.93943C9.34048 6.70012 9.81924 6.61264 10.2848 6.69248C10.7503 6.77233 11.1725 7.01436 11.4767 7.3757C11.7809 7.73703 11.9473 8.19436 11.9466 8.66668C11.9466 10 9.94665 10.6667 9.94665 10.6667M9.99998 13.3333H10.0066M16.6666 10C16.6666 13.6819 13.6819 16.6667 9.99998 16.6667C6.31808 16.6667 3.33331 13.6819 3.33331 10C3.33331 6.31811 6.31808 3.33334 9.99998 3.33334C13.6819 3.33334 16.6666 6.31811 16.6666 10Z" stroke="black" stroke-width="1.5" stroke-linecap="round" stroke-linejoin="round"/>
</mask>
<g mask="url(#mask0_2957_3742)">
<rect x="2" y="2" width="16" height="16" fill="#141B1F"/>
</g>
<rect width="20" height="20" rx="3" fill="#DD7805"/>
<mask id="mask1_2957_3742" style="mask-type:alpha" maskUnits="userSpaceOnUse" x="4" y="5" width="12" height="11">
<path fill-rule="evenodd" clip-rule="evenodd" d="M10.4063 5.54689C10.1476 5.43188 9.85234 5.43188 9.59369 5.54689C9.39392 5.63572 9.26416 5.79218 9.17386 5.91966C9.08507 6.04501 8.99002 6.20922 8.88548 6.38982L4.75191 13.5296C4.64695 13.7109 4.55157 13.8756 4.4869 14.0154C4.42118 14.1575 4.34988 14.3484 4.3726 14.5664C4.40201 14.8484 4.54978 15.1047 4.77913 15.2715C4.95638 15.4004 5.15738 15.4344 5.31326 15.4487C5.46663 15.4627 5.65696 15.4627 5.86641 15.4627H14.1335C14.343 15.4627 14.5333 15.4627 14.6867 15.4487C14.8426 15.4344 15.0436 15.4004 15.2208 15.2715C15.4502 15.1047 15.598 14.8484 15.6274 14.5664C15.6501 14.3484 15.5788 14.1575 15.5131 14.0154C15.4484 13.8756 15.353 13.7109 15.2481 13.5297L11.1145 6.3898C11.0099 6.20921 10.9149 6.045 10.8261 5.91966C10.7358 5.79218 10.606 5.63572 10.4063 5.54689ZM10.5 9.21271C10.5 8.93657 10.2761 8.71271 10 8.71271C9.72386 8.71271 9.5 8.93657 9.5 9.21271V11.2127C9.5 11.4888 9.72386 11.7127 10 11.7127C10.2761 11.7127 10.5 11.4888 10.5 11.2127V9.21271ZM10 12.7127C9.72386 12.7127 9.5 12.9366 9.5 13.2127C9.5 13.4888 9.72386 13.7127 10 13.7127H10.005C10.2811 13.7127 10.505 13.4888 10.505 13.2127C10.505 12.9366 10.2811 12.7127 10.005 12.7127H10Z" fill="black"/>
</mask>
<g mask="url(#mask1_2957_3742)">
<rect x="4" y="4" width="12" height="12" fill="black"/>
</g>
</svg>
