<svg width="20" height="20" viewBox="0 0 20 20" fill="none" xmlns="http://www.w3.org/2000/svg">
<rect width="20" height="20" rx="3" fill="#8993A5"/>
<mask id="mask0_2957_3742" style="mask-type:alpha" maskUnits="userSpaceOnUse" x="2" y="2" width="16" height="16">
<path d="M8.05998 8.00001C8.21672 7.55446 8.52608 7.17875 8.93328 6.93943C9.34048 6.70012 9.81924 6.61264 10.2848 6.69248C10.7503 6.77233 11.1725 7.01436 11.4767 7.3757C11.7809 7.73703 11.9473 8.19436 11.9466 8.66668C11.9466 10 9.94665 10.6667 9.94665 10.6667M9.99998 13.3333H10.0066M16.6666 10C16.6666 13.6819 13.6819 16.6667 9.99998 16.6667C6.31808 16.6667 3.33331 13.6819 3.33331 10C3.33331 6.31811 6.31808 3.33334 9.99998 3.33334C13.6819 3.33334 16.6666 6.31811 16.6666 10Z" stroke="black" stroke-width="1.5" stroke-linecap="round" stroke-linejoin="round"/>
</mask>
<g mask="url(#mask0_2957_3742)">
<rect x="2" y="2" width="16" height="16" fill="#141B1F"/>
</g>
<rect width="20" height="20" rx="3" fill="#DD7805"/>
<mask id="mask1_2957_3742" style="mask-type:alpha" maskUnits="userSpaceOnUse" x="2" y="3" width="16" height="15">
<path d="M9.99982 8.66666V11.3333M9.99982 14H10.0065M9.0767 5.26114L3.59344 14.7322C3.2893 15.2575 3.13723 15.5202 3.15971 15.7358C3.17931 15.9238 3.27783 16.0947 3.43073 16.2059C3.60604 16.3333 3.90954 16.3333 4.51656 16.3333H15.4831C16.0901 16.3333 16.3936 16.3333 16.5689 16.2059C16.7218 16.0947 16.8203 15.9238 16.8399 15.7358C16.8624 15.5202 16.7103 15.2575 16.4062 14.7322L10.9229 5.26114C10.6199 4.7377 10.4684 4.47598 10.2707 4.38807C10.0982 4.3114 9.90139 4.3114 9.72895 4.38807C9.53126 4.47598 9.37974 4.7377 9.0767 5.26114Z" stroke="black" stroke-width="1.5" stroke-linecap="round" stroke-linejoin="round"/>
</mask>
<g mask="url(#mask1_2957_3742)">
<rect x="2" y="2" width="16" height="16" fill="white"/>
</g>
</svg>
