<svg width="20" height="20" viewBox="0 0 20 20" fill="none" xmlns="http://www.w3.org/2000/svg">
<rect width="20" height="20" rx="3" fill="#8993A5"/>
<mask id="mask0_2957_3751" style="mask-type:alpha" maskUnits="userSpaceOnUse" x="2" y="2" width="16" height="16">
<path d="M8.06001 7.99998C8.21675 7.55442 8.52611 7.17872 8.93331 6.9394C9.34051 6.70009 9.81927 6.6126 10.2848 6.69245C10.7503 6.7723 11.1726 7.01433 11.4767 7.37566C11.7809 7.737 11.9474 8.19433 11.9467 8.66665C11.9467 9.99998 9.94668 10.6666 9.94668 10.6666M10 13.3333H10.0067M16.6667 9.99998C16.6667 13.6819 13.6819 16.6666 10 16.6666C6.31811 16.6666 3.33334 13.6819 3.33334 9.99998C3.33334 6.31808 6.31811 3.33331 10 3.33331C13.6819 3.33331 16.6667 6.31808 16.6667 9.99998Z" stroke="black" stroke-width="1.5" stroke-linecap="round" stroke-linejoin="round"/>
</mask>
<g mask="url(#mask0_2957_3751)">
<rect x="2" y="2" width="16" height="16" fill="#141B1F"/>
</g>
<rect width="20" height="20" rx="3" fill="#DD7805"/>
<mask id="mask1_2957_3751" style="mask-type:alpha" maskUnits="userSpaceOnUse" x="2" y="3" width="16" height="15">
<path d="M9.99985 8.66666V11.3333M9.99985 14H10.0065M9.07673 5.26114L3.59347 14.7322C3.28933 15.2575 3.13726 15.5202 3.15974 15.7358C3.17934 15.9238 3.27786 16.0947 3.43076 16.2059C3.60607 16.3333 3.90957 16.3333 4.51659 16.3333H15.4831C16.0901 16.3333 16.3936 16.3333 16.5689 16.2059C16.7218 16.0947 16.8204 15.9238 16.84 15.7358C16.8624 15.5202 16.7104 15.2575 16.4062 14.7322L10.923 5.26114C10.6199 4.7377 10.4684 4.47598 10.2707 4.38807C10.0983 4.3114 9.90142 4.3114 9.72898 4.38807C9.53129 4.47598 9.37977 4.7377 9.07673 5.26114Z" stroke="black" stroke-width="1.5" stroke-linecap="round" stroke-linejoin="round"/>
</mask>
<g mask="url(#mask1_2957_3751)">
<rect x="2" y="2" width="16" height="16" fill="white"/>
</g>
</svg>
