<svg width="32" height="32" viewBox="0 0 32 32" fill="none" xmlns="http://www.w3.org/2000/svg">
<mask id="mask0_1016_18459" style="mask-type:alpha" maskUnits="userSpaceOnUse" x="3" y="1" width="26" height="30">
<path d="M16.3814 1.45124C16.1285 1.41469 15.8716 1.41469 15.6187 1.45124C15.3272 1.49336 15.0559 1.59584 14.8405 1.6772L14.7828 1.69895L7.45957 4.44498C6.63585 4.75252 5.91246 5.02259 5.35536 5.51355C4.86801 5.94305 4.4926 6.48477 4.26157 7.0919C3.99748 7.78591 3.9986 8.55807 3.99987 9.43733L4.00005 15.9998C4.00005 19.7687 6.04977 22.9108 8.26546 25.219C10.496 27.5428 13.048 29.1841 14.3975 29.9713L14.4521 30.0033C14.6984 30.148 15.0181 30.3357 15.4409 30.4263C15.7868 30.5005 16.2133 30.5005 16.5592 30.4263C16.982 30.3357 17.3017 30.148 17.5479 30.0034L17.6026 29.9713C18.9521 29.1841 21.5041 27.5428 23.7346 25.219C25.9503 22.9108 28 19.7687 28 15.9998L28.0002 9.43733C28.0015 8.55807 28.0026 7.78591 27.7385 7.0919C27.5075 6.48477 27.1321 5.94305 26.6447 5.51355C26.0876 5.02259 25.3642 4.75252 24.5405 4.44498L17.2173 1.69895L17.1596 1.6772C16.9442 1.59584 16.6729 1.49336 16.3814 1.45124Z" fill="black"/>
</mask>
<g mask="url(#mask0_1016_18459)">
<rect width="32" height="32" fill="#8B1924"/>
</g>
<path d="M15.0977 10.0469V20H13.0469V10.0469H15.0977ZM19.0625 14.2988V15.8984H14.5371V14.2988H19.0625ZM19.541 10.0469V11.6533H14.5371V10.0469H19.541Z" fill="white"/>
</svg>
