<svg width="20" height="22" viewBox="0 0 20 22" fill="none" xmlns="http://www.w3.org/2000/svg">
<path fill-rule="evenodd" clip-rule="evenodd" d="M10.4029 0.185046C10.1371 0.130375 9.86292 0.130375 9.5971 0.185046C9.28983 0.248242 9.01519 0.402069 8.79685 0.524362L8.73733 0.557609L1.33733 4.66872L1.27419 4.70359C1.04306 4.8309 0.752445 4.99097 0.529269 5.23315C0.336318 5.44253 0.190297 5.69069 0.100972 5.96105C-0.00234504 6.27375 -0.00113638 6.60553 -0.000175071 6.8694L2.55049e-06 6.94153V15.0586L-0.000175071 15.1308C-0.00113638 15.3946 -0.00234504 15.7264 0.100972 16.0391C0.190297 16.3095 0.336318 16.5576 0.529269 16.767C0.752433 17.0092 1.04303 17.1692 1.27416 17.2966L1.33733 17.3314L8.73733 21.4426L8.79684 21.4758C9.01518 21.5981 9.28982 21.7519 9.5971 21.8151C9.86292 21.8698 10.1371 21.8698 10.4029 21.8151C10.7102 21.7519 10.9848 21.5981 11.2032 21.4758L11.2627 21.4426L18.6627 17.3314L18.7258 17.2966C18.9569 17.1693 19.2476 17.0092 19.4707 16.767C19.6637 16.5576 19.8097 16.3095 19.899 16.0391C20.0023 15.7264 20.0011 15.3946 20.0002 15.1308L20 15.0586V6.94153L20.0002 6.8694C20.0011 6.60553 20.0023 6.27375 19.899 5.96105C19.8097 5.69069 19.6637 5.44253 19.4707 5.23315C19.2476 4.99097 18.9569 4.8309 18.7258 4.70359L18.6627 4.66872L11.2627 0.557609L11.2032 0.524362C10.9848 0.402069 10.7102 0.248242 10.4029 0.185046ZM8.90663 7.27135C9.31383 7.03203 9.79259 6.94455 10.2581 7.0244C10.7236 7.10425 11.1459 7.34628 11.45 7.70761C11.7542 8.06895 11.9207 8.52628 11.92 8.99859L11.92 9.00008C11.92 9.46922 11.5549 9.9583 10.8653 10.418C10.5509 10.6276 10.2294 10.7891 9.98261 10.8988C9.86061 10.953 9.76034 10.993 9.69291 11.0187C9.66298 11.0301 9.63293 11.0411 9.60272 11.0517C9.07945 11.2268 8.79678 11.7927 8.97131 12.3163C9.14596 12.8403 9.71228 13.1234 10.2362 12.9488L10.4049 12.8877C10.5015 12.8509 10.6356 12.7972 10.7949 12.7264C11.1105 12.5861 11.5391 12.3726 11.9747 12.0821C12.7849 11.542 13.9195 10.5314 13.92 9.001C13.9213 8.05656 13.5883 7.14213 12.9801 6.41961C12.3717 5.69694 11.5273 5.21289 10.5962 5.05319C9.66519 4.89349 8.70767 5.06845 7.89327 5.54708C7.07886 6.02572 6.46013 6.77713 6.14666 7.66824C5.96339 8.18923 6.23716 8.76015 6.75815 8.94342C7.27914 9.12669 7.85006 8.85292 8.03333 8.33193C8.19006 7.88637 8.49943 7.51066 8.90663 7.27135ZM9.99999 15.0001C9.44771 15.0001 8.99999 15.4478 8.99999 16.0001C8.99999 16.5524 9.44771 17.0001 9.99999 17.0001H10.01C10.5623 17.0001 11.01 16.5524 11.01 16.0001C11.01 15.4478 10.5623 15.0001 10.01 15.0001H9.99999Z" fill="#677285"/>
</svg>
