<svg width="20" height="20" viewBox="0 0 20 20" fill="none" xmlns="http://www.w3.org/2000/svg">
<rect width="20" height="20" rx="3" fill="#8993A5"/>
<mask id="mask0_2957_3741" style="mask-type:alpha" maskUnits="userSpaceOnUse" x="2" y="2" width="16" height="16">
<path d="M8.05998 8.00001C8.21672 7.55446 8.52608 7.17875 8.93328 6.93943C9.34048 6.70012 9.81924 6.61264 10.2848 6.69248C10.7503 6.77233 11.1725 7.01436 11.4767 7.3757C11.7809 7.73703 11.9473 8.19436 11.9466 8.66668C11.9466 10 9.94665 10.6667 9.94665 10.6667M9.99998 13.3333H10.0066M16.6666 10C16.6666 13.6819 13.6819 16.6667 9.99998 16.6667C6.31808 16.6667 3.33331 13.6819 3.33331 10C3.33331 6.31811 6.31808 3.33334 9.99998 3.33334C13.6819 3.33334 16.6666 6.31811 16.6666 10Z" stroke="black" stroke-width="1.5" stroke-linecap="round" stroke-linejoin="round"/>
</mask>
<g mask="url(#mask0_2957_3741)">
<rect x="2" y="2" width="16" height="16" fill="#141B1F"/>
</g>
<rect width="20" height="20" rx="3" fill="#8993A5"/>
<mask id="mask1_2957_3741" style="mask-type:alpha" maskUnits="userSpaceOnUse" x="4" y="4" width="12" height="12">
<path fill-rule="evenodd" clip-rule="evenodd" d="M10 4.71271C6.96243 4.71271 4.5 7.17514 4.5 10.2127C4.5 13.2503 6.96243 15.7127 10 15.7127C13.0376 15.7127 15.5 13.2503 15.5 10.2127C15.5 7.17514 13.0376 4.71271 10 4.71271ZM9.45332 8.34832C9.65692 8.22866 9.8963 8.18492 10.1291 8.22485C10.3618 8.26477 10.5729 8.38578 10.725 8.56645C10.8771 8.74712 10.9603 8.97578 10.96 9.21194L10.96 9.21269C10.96 9.44726 10.7774 9.6918 10.4326 9.92166C10.2755 10.0265 10.1147 10.1072 9.9913 10.162C9.9303 10.1891 9.88017 10.2092 9.84645 10.222C9.83149 10.2277 9.81647 10.2332 9.80136 10.2385C9.53972 10.326 9.39839 10.609 9.48566 10.8708C9.57298 11.1328 9.85614 11.2744 10.1181 11.187L10.2024 11.1565C10.2508 11.1381 10.3178 11.1112 10.3974 11.0758C10.5553 11.0057 10.7695 10.8989 10.9873 10.7537C11.3925 10.4836 11.9598 9.97832 11.96 9.21314C11.9606 8.74093 11.7942 8.28371 11.49 7.92245C11.1859 7.56112 10.7636 7.31909 10.2981 7.23924C9.83259 7.15939 9.35383 7.24687 8.94663 7.48619C8.53943 7.7255 8.23007 8.10121 8.07333 8.54677C7.98169 8.80726 8.11858 9.09272 8.37908 9.18436C8.63957 9.27599 8.92503 9.1391 9.01666 8.87861C9.09503 8.65583 9.24972 8.46798 9.45332 8.34832ZM10 12.2127C9.72385 12.2127 9.5 12.4365 9.5 12.7127C9.5 12.9888 9.72385 13.2127 10 13.2127H10.005C10.2811 13.2127 10.505 12.9888 10.505 12.7127C10.505 12.4365 10.2811 12.2127 10.005 12.2127H10Z" fill="black"/>
</mask>
<g mask="url(#mask1_2957_3741)">
<rect x="4" y="4" width="12" height="12" fill="white"/>
</g>
</svg>
